# Blender v2.80 (sub 45) OBJ File: 'Circle.blend'
# www.blender.org
mtllib Circle.mtl
v 0.000000 0.500000 0.000000
v -0.067830 0.495434 0.000000
v -0.132892 0.482134 0.000000
v -0.194589 0.460696 0.000000
v -0.252324 0.431718 0.000000
v -0.305501 0.395795 0.000000
v -0.353523 0.353523 0.000000
v -0.395794 0.305501 0.000000
v -0.431718 0.252324 0.000000
v -0.460696 0.194589 0.000000
v -0.482134 0.132892 0.000000
v -0.495434 0.067830 0.000000
v -0.500000 0.000000 0.000000
v -0.495434 -0.067830 0.000000
v -0.482134 -0.132892 0.000000
v -0.460696 -0.194589 0.000000
v -0.431718 -0.252324 0.000000
v -0.395795 -0.305501 0.000000
v -0.353523 -0.353523 0.000000
v -0.305501 -0.395794 0.000000
v -0.252324 -0.431718 0.000000
v -0.194589 -0.460696 0.000000
v -0.132892 -0.482134 0.000000
v -0.067830 -0.495434 0.000000
v 0.000000 -0.500000 0.000000
v 0.067830 -0.495434 0.000000
v 0.132892 -0.482134 0.000000
v 0.194589 -0.460696 0.000000
v 0.252324 -0.431718 0.000000
v 0.305501 -0.395795 0.000000
v 0.353523 -0.353523 0.000000
v 0.395794 -0.305501 0.000000
v 0.431718 -0.252324 0.000000
v 0.460696 -0.194589 0.000000
v 0.482134 -0.132892 0.000000
v 0.495434 -0.067830 0.000000
v 0.500000 0.000000 0.000000
v 0.495434 0.067830 0.000000
v 0.482134 0.132892 0.000000
v 0.460696 0.194589 0.000000
v 0.431718 0.252324 0.000000
v 0.395795 0.305501 0.000000
v 0.353523 0.353523 0.000000
v 0.305501 0.395794 0.000000
v 0.252324 0.431718 0.000000
v 0.194589 0.460696 0.000000
v 0.132892 0.482134 0.000000
v 0.067830 0.495434 0.000000
vn 0.0000 0.0000 -1.0000
usemtl None
s off
f 12//1 14//1 13//1
f 12//1 15//1 14//1
f 11//1 15//1 12//1
f 11//1 16//1 15//1
f 10//1 16//1 11//1
f 10//1 17//1 16//1
f 9//1 17//1 10//1
f 9//1 18//1 17//1
f 8//1 18//1 9//1
f 8//1 19//1 18//1
f 7//1 19//1 8//1
f 7//1 20//1 19//1
f 6//1 20//1 7//1
f 6//1 21//1 20//1
f 5//1 21//1 6//1
f 5//1 22//1 21//1
f 4//1 22//1 5//1
f 4//1 23//1 22//1
f 3//1 23//1 4//1
f 3//1 24//1 23//1
f 2//1 24//1 3//1
f 1//1 24//1 2//1
f 1//1 25//1 24//1
f 48//1 25//1 1//1
f 48//1 26//1 25//1
f 47//1 26//1 48//1
f 47//1 27//1 26//1
f 47//1 28//1 27//1
f 46//1 28//1 47//1
f 46//1 29//1 28//1
f 45//1 29//1 46//1
f 45//1 30//1 29//1
f 44//1 30//1 45//1
f 44//1 31//1 30//1
f 43//1 31//1 44//1
f 43//1 32//1 31//1
f 42//1 32//1 43//1
f 42//1 33//1 32//1
f 41//1 33//1 42//1
f 41//1 34//1 33//1
f 40//1 34//1 41//1
f 40//1 35//1 34//1
f 39//1 35//1 40//1
f 39//1 36//1 35//1
f 38//1 36//1 39//1
f 38//1 37//1 36//1
